<svg width="32" height="32" viewBox="0 0 32 32" fill="none" xmlns="http://www.w3.org/2000/svg">
<rect width="32" height="32" rx="16" fill="#4529E6"/>
<path d="M14.1719 13.4929C14.1188 13.0223 13.9001 12.6577 13.5156 12.3991C13.1312 12.1373 12.6473 12.0064 12.0639 12.0064C11.6463 12.0064 11.285 12.0727 10.9801 12.2053C10.6752 12.3345 10.4382 12.5135 10.2692 12.7422C10.1035 12.9676 10.0206 13.2244 10.0206 13.5128C10.0206 13.7547 10.0769 13.9635 10.1896 14.1392C10.3056 14.3149 10.4564 14.4624 10.642 14.5817C10.831 14.6977 11.0331 14.7955 11.2486 14.875C11.464 14.9512 11.6712 15.0142 11.87 15.0639L12.8643 15.3224C13.1892 15.402 13.5223 15.5097 13.8636 15.6456C14.205 15.7815 14.5215 15.9605 14.8132 16.1825C15.1049 16.4046 15.3402 16.6797 15.5192 17.0078C15.7015 17.3359 15.7926 17.7287 15.7926 18.1861C15.7926 18.7628 15.6435 19.2749 15.3452 19.7223C15.0502 20.1697 14.621 20.5227 14.0575 20.7812C13.4974 21.0398 12.8196 21.169 12.0241 21.169C11.2618 21.169 10.6023 21.0481 10.0455 20.8061C9.48864 20.5642 9.05279 20.2211 8.73793 19.777C8.42306 19.3295 8.24905 18.7992 8.21591 18.1861H9.7571C9.78693 18.554 9.90625 18.8606 10.1151 19.1058C10.3272 19.3478 10.5973 19.5284 10.9254 19.6477C11.2569 19.7637 11.6198 19.8217 12.0142 19.8217C12.4484 19.8217 12.8345 19.7538 13.1726 19.6179C13.514 19.4787 13.7824 19.2865 13.978 19.0412C14.1735 18.7926 14.2713 18.5026 14.2713 18.1712C14.2713 17.8696 14.1851 17.6226 14.0128 17.4304C13.8438 17.2382 13.6134 17.0791 13.3217 16.9531C13.0334 16.8272 12.7069 16.7161 12.3423 16.62L11.1392 16.2919C10.3239 16.0698 9.67756 15.7434 9.20028 15.3125C8.72633 14.8816 8.48935 14.3116 8.48935 13.6023C8.48935 13.0156 8.64844 12.5036 8.96662 12.0661C9.2848 11.6286 9.71567 11.2888 10.2592 11.0469C10.8028 10.8016 11.416 10.679 12.0987 10.679C12.7881 10.679 13.3963 10.8 13.9233 11.0419C14.4536 11.2839 14.8712 11.617 15.1761 12.0412C15.4811 12.4621 15.6402 12.946 15.6534 13.4929H14.1719ZM17.6284 21V10.8182H19.1646V19.6776H23.7782V21H17.6284Z" fill="white"/>
</svg>
