<svg width="32" height="32" viewBox="0 0 32 32" fill="none" xmlns="http://www.w3.org/2000/svg">
<rect width="32" height="32" rx="16" fill="#153D2E"/>
<path d="M15.5753 14.1293H14.0241C13.9645 13.7978 13.8535 13.5062 13.6911 13.2543C13.5286 13.0024 13.3298 12.7886 13.0945 12.6129C12.8591 12.4373 12.5956 12.3047 12.304 12.2152C12.0156 12.1257 11.709 12.081 11.3842 12.081C10.7976 12.081 10.2723 12.2285 9.80824 12.5234C9.34754 12.8184 8.98295 13.2509 8.71449 13.821C8.44934 14.3911 8.31676 15.0871 8.31676 15.9091C8.31676 16.7377 8.44934 17.437 8.71449 18.0071C8.98295 18.5772 9.3492 19.008 9.81321 19.2997C10.2772 19.5914 10.7992 19.7372 11.3793 19.7372C11.7008 19.7372 12.0057 19.6941 12.294 19.608C12.5857 19.5185 12.8492 19.3875 13.0845 19.2152C13.3198 19.0429 13.5187 18.8324 13.6811 18.5838C13.8468 18.3319 13.9612 18.0436 14.0241 17.7188L15.5753 17.7237C15.4924 18.2242 15.3317 18.6849 15.093 19.1058C14.8577 19.5234 14.5545 19.8847 14.1832 20.1896C13.8153 20.4912 13.3944 20.7249 12.9205 20.8906C12.4465 21.0563 11.9295 21.1392 11.3693 21.1392C10.4877 21.1392 9.70218 20.9304 9.01278 20.5128C8.32339 20.0919 7.77983 19.4903 7.3821 18.7081C6.98769 17.9259 6.79048 16.9929 6.79048 15.9091C6.79048 14.822 6.98935 13.889 7.38707 13.1101C7.7848 12.3279 8.32836 11.728 9.01776 11.3104C9.70715 10.8894 10.491 10.679 11.3693 10.679C11.9096 10.679 12.4134 10.7569 12.8807 10.9126C13.3513 11.0651 13.7739 11.2905 14.1484 11.5888C14.523 11.8838 14.8329 12.245 15.0781 12.6726C15.3234 13.0968 15.4891 13.5824 15.5753 14.1293ZM22.9668 13.4929C22.9138 13.0223 22.695 12.6577 22.3105 12.3991C21.9261 12.1373 21.4422 12.0064 20.8588 12.0064C20.4412 12.0064 20.08 12.0727 19.775 12.2053C19.4701 12.3345 19.2331 12.5135 19.0641 12.7422C18.8984 12.9676 18.8155 13.2244 18.8155 13.5128C18.8155 13.7547 18.8719 13.9635 18.9846 14.1392C19.1006 14.3149 19.2514 14.4624 19.437 14.5817C19.6259 14.6977 19.8281 14.7955 20.0435 14.875C20.2589 14.9512 20.4661 15.0142 20.665 15.0639L21.6593 15.3224C21.9841 15.402 22.3172 15.5097 22.6586 15.6456C22.9999 15.7815 23.3165 15.9605 23.6081 16.1825C23.8998 16.4046 24.1351 16.6797 24.3141 17.0078C24.4964 17.3359 24.5875 17.7287 24.5875 18.1861C24.5875 18.7628 24.4384 19.2749 24.1401 19.7223C23.8451 20.1697 23.4159 20.5227 22.8525 20.7812C22.2923 21.0398 21.6145 21.169 20.8191 21.169C20.0568 21.169 19.3972 21.0481 18.8404 20.8061C18.2836 20.5642 17.8477 20.2211 17.5328 19.777C17.218 19.3295 17.044 18.7992 17.0108 18.1861H18.552C18.5819 18.554 18.7012 18.8606 18.91 19.1058C19.1221 19.3478 19.3922 19.5284 19.7203 19.6477C20.0518 19.7637 20.4147 19.8217 20.8091 19.8217C21.2433 19.8217 21.6294 19.7538 21.9675 19.6179C22.3089 19.4787 22.5774 19.2865 22.7729 19.0412C22.9685 18.7926 23.0662 18.5026 23.0662 18.1712C23.0662 17.8696 22.9801 17.6226 22.8077 17.4304C22.6387 17.2382 22.4083 17.0791 22.1167 16.9531C21.8283 16.8272 21.5018 16.7161 21.1373 16.62L19.9341 16.2919C19.1188 16.0698 18.4725 15.7434 17.9952 15.3125C17.5212 14.8816 17.2843 14.3116 17.2843 13.6023C17.2843 13.0156 17.4434 12.5036 17.7615 12.0661C18.0797 11.6286 18.5106 11.2888 19.0542 11.0469C19.5977 10.8016 20.2109 10.679 20.8936 10.679C21.583 10.679 22.1912 10.8 22.7182 11.0419C23.2485 11.2839 23.6661 11.617 23.9711 12.0412C24.276 12.4621 24.4351 12.946 24.4483 13.4929H22.9668Z" fill="white"/>
</svg>
