<svg width="32" height="32" viewBox="0 0 32 32" fill="none" xmlns="http://www.w3.org/2000/svg">
<rect width="32" height="32" rx="16" fill="#E34D8C"/>
<path d="M13.076 10.8182H14.6072V18.0369C14.6072 18.6899 14.478 19.2483 14.2195 19.7124C13.9643 20.1764 13.6046 20.531 13.1406 20.7763C12.6766 21.0182 12.133 21.1392 11.5099 21.1392C10.9366 21.1392 10.4212 21.0348 9.96378 20.826C9.50971 20.6172 9.15009 20.3139 8.88494 19.9162C8.62311 19.5152 8.49219 19.0279 8.49219 18.4545H10.0185C10.0185 18.7363 10.0831 18.9799 10.2124 19.1854C10.3449 19.3909 10.5256 19.5516 10.7543 19.6676C10.9863 19.7803 11.2514 19.8366 11.5497 19.8366C11.8745 19.8366 12.1496 19.7687 12.375 19.6328C12.6037 19.4936 12.7777 19.2898 12.897 19.0213C13.0163 18.7528 13.076 18.4247 13.076 18.0369V10.8182ZM16.8432 21V10.8182H18.3794V19.6776H22.9931V21H16.8432Z" fill="white"/>
</svg>
